<svg xmlns="http://www.w3.org/2000/svg" width="45" height="36" viewBox="0 0 45 36">
  <path id="Icon_awesome-truck" data-name="Icon awesome-truck" d="M43.875,24.75H42.75v-7.6a3.375,3.375,0,0,0-.991-2.384L34.734,7.741a3.375,3.375,0,0,0-2.384-.991h-3.1V3.375A3.376,3.376,0,0,0,25.875,0H3.375A3.376,3.376,0,0,0,0,3.375v22.5A3.376,3.376,0,0,0,3.375,29.25H4.5a6.75,6.75,0,0,0,13.5,0h9a6.75,6.75,0,0,0,13.5,0h3.375A1.128,1.128,0,0,0,45,28.125v-2.25A1.128,1.128,0,0,0,43.875,24.75ZM11.25,32.625a3.375,3.375,0,1,1,3.375-3.375A3.376,3.376,0,0,1,11.25,32.625Zm22.5,0a3.375,3.375,0,1,1,3.375-3.375A3.376,3.376,0,0,1,33.75,32.625ZM39.375,18H29.25V10.125h3.1l7.024,7.024Z"/>
</svg>
